/* XPM */
static char * Brick64_xpm[] = {
"64 64 31 1",
" 	c #5E4522",
".	c #ADB591",
"+	c #ABA589",
"@	c #85755C",
"#	c #664839",
"$	c #4D381C",
"%	c #948465",
"&	c #ECD093",
"*	c #C7C5A7",
"=	c #A1957A",
"-	c #736244",
";	c #4D401F",
">	c #916A3B",
",	c #3D2C11",
"'	c #3B2717",
")	c #9A8B6E",
"!	c #BA9961",
"~	c #70592B",
"{	c #433119",
"]	c #382F24",
"^	c #7A6E58",
"/	c #78652B",
"(	c #C3C1A2",
"_	c #5E352D",
":	c #C5A260",
"<	c #595652",
"[	c #3C3B15",
"}	c #5F4E1D",
"|	c #371A17",
"1	c #56451A",
"2	c #2D350B",
" ..++@#$%&*....+=..++@#$%&*....+=..++@#$%&*....+=..++@#$%&*....+",
"$++===-;&*.......++===-;&*.......++===-;&*.......++===-;&*......",
"$@@>>>- *+@@@@@@@@@>>>-;*+@@@@@@@@@>>>- *+@@@@@@@@@>>>-;*+@@@@@@",
"$@@@@>- +@@@@@@@@@@@@>- +@@@@@@@@@@@@>- +@@@@@@@@@@@@>- +@@@@@@@",
",@@@@>- =@@@@@@@@@@@@>- =@@@@@@@@@@@@>- =@@@@@@@@@@@@>- =@@@@@@@",
",@@@@>- =@@@@@@@@@@@@>- =@@@@@@@@@@@@>- =@@@@@@@@@@@@>- =@@@@@@@",
",    ;$$$; ;$$$;     ;$$$; ;$$$;     ;$'$; ;$'$;     ;$$$; ;$$$;",
",....+=..++@#$%&*....+=..++@#$%&*....+=..++@#$%&*...=+=..++@#$%&",
",......++===-;&*.......++===-;&*.......++===-;&*..+=@..++===-;&*",
",@@@@@@@@>>>- *+@@@@@@@@@>>>-;*+@@@@@@@@@>>>- *+%@-$$%@@@>>>-;*+",
",@@@@@@@@@@>- +@@@@@@@@@@@@>- +@@@----@@@@@>- +@@-$' %@@@@@>- +@",
",@@@@@@@@@@>- =@@@@@@@@@@@@>- =@@- $';%@@@@>- =@-$' -)@@@@@>- =@",
",@@@@@@@@@@>- =@@@@@@@@@@@@>- =@@-$'; !%@@@>-  --$ -=@@@@@@>- =@",
",$$; ;$$$;     ;$$$; ;$$$;     ;$$$; ;$'$;     ;$$$; ;$'$;     ;",
",..++@#$%&*....+=..++@#$%&*....+=..++@#$%&*....+=..++@#$%&*....+",
",++===-;&*.......++===-;&*.......++===-;&*.......++===-;&*......",
",@@>>>- *+@@@@@@@@@>>>-;*+@@@@@@@@@>>>- *+@@@@@@@@@>>>-;*+@@@@@@",
",@@@@>- +@@@@@@@@@@@@>- +@@@@@@@@@@@@>- +@@@@@@@@@@@@>- +@@@@@@@",
",@@@@>- =@@@@@@@@@@@@>- =@@@@@@@@@@@@>- =@@@@@@@@@@@@>- =@@----@",
",@@@@>- =@@@@@@@@@@@@>- =@@@@@@@@@@@@>- =@@@@@@@@@@@@>- =@-# $$ ",
",    ;$$$; ;$$$;     ;$$$; ;$$$;     ;$$$; ;$$$;     ;$$$; ;$$$;",
",....+=..++@#$%&*....+=..++@#$%*+....+=..++@#$%&*....+=..++@#$%*",
",......++===-;&*.......++===-;*!.......++===-;&*.......++===-;*!",
" @@@@@@@@>>>- *+@@@@@@@@@>>>- +@@@@@@@@@@>>>- *+@@@@@@@@@>>>- !@",
"$@@@@@@@@@@>- +@@@@@@@@@@@@>- +@@@@@@@@@@@@>- +@@@@#~@@@@@@>- +@",
",@@@@@@@@@@>- =@@@@@@@@@@@@>- +@@@@@@@@@@@@>- =@@@#$$%@@@@@>- +@",
",@@@@>@>@@@>- =@@@@>@@@>@@@>- +@@@@@@>@>@@@>- =@@#,, !@>@@@>- +@",
",>@@>>>@>@>>- =@@>>>@>@>@>@>- +>@>@@>>>@>@>>- =@#,$ %>@>@>@>- +>",
",>>->>>>>>>> $ >>>>->>>>>>>> $ >>>>->>>>>>>> $ >>>>->>>>>>>> $ >",
",    ;$$$; ;$$$;     ;$$$; ;$$$;     ;$$$; ;$$$;     ;$$$; ;$$$;",
",{{{]]]]]{{{]{{]]{{{{{]{{]]]]]]{]{{{]]]]]{{{]{{]]{{{{{]{{]]]]]]{",
",'''''''''''''''''''''''''''''''''''''''''''''''''''''''''''''''",
"%{*=)=)%%%{*=)=)%%%%%%){*=)=)%%%%{*=)=)%%%{*=)=)%%%%%%){*=)=)%%%",
"@;=@@@@@@^;=@@@@@@@@@@^;=@@@@@@@@;=@@@@@@^;=@@@@@@@@@@^;=@@@@@@@",
"@;)@@@@@@^;)@@@@@@@@@@^;)@@@@>@@@;)@@@@@@^;)@@@@@@@@@@^;)@@@@>@@",
"^;=@^@^@^>;=@@@^@@^@^@>;=@@^@^@@^;=@^@^@^>;=@@@^@@^@^@>;=@@^@^@@",
"^;)>^@^>/>;)@>@^@^>^@>/;)^@@^>^>^;)>^@^>/>;)@>@^@^>^@>/;)^@@^>^>",
">$%/>>>///$%@/>^>^/>>//$%^>>>/>/>$%/>>>///$%@/>^>^/>>//$%^>>>/>/",
"$$$;$;;$;${$;$;;;;;;;;${$;;;;$;$$$$;$;;$;${$;$;;;;;;;;${$;;;;$;$",
"%@-#-(=)%)%-_@(=)=)%)%%-_(:=)))%%@-#-(=)%)%-_@(=)=)%)%%-_(:=)))%",
"^@^-(:%@@@@@#())%@@@@@^^#:)@@@^@^@^-(:%@@@@@#())%@@@@@^^#:)@@@^@",
"-^-#=%@^@^^-#=)%@@^@^-^-##@@^^^^-^-#=%@^@^^-#=)%@@^@^-^-##@@^^^^",
"---#)%@@^^--#)%@@^@^-^-<#;#<^-^----#)%@@^^--#)%@@^@^-^-<#;#<^-^-",
"[##;%@@^^-^-#%@@@@^^^-^-#;;#;######;%@@^^-^-#%@@@@^^^-^-#;;#;###",
"}@#;@@^^-^-<##@@@^^^-^-<_#(:=)))%@#;@@^^-^-<##@@@^^^-^-<_#(:=)))",
"@^-#;@@^^-<<;;#-@@^---<;#)=)%@@@@^-#;@@^^-<<;;#-@@^---<;#)=)%@@@",
"^-^-^;#<#%%%=)^#--<-<<;;#@)%@^@^^-^-^;#<#%%%=)^#--<-<<;;#@)%@^@^",
"-^-^-#;-:=)%@^-^#;;;##=)^##@@^^^-^-^-#;-:=)%@^-^#;;;{{{{###@@^^^",
"^---#;-(:)%@@@^---;:(=%@@^-#@^^-^---#;-(:)%@@@^---;{{]|]{${#@^^-",
"-<##;#%:)%@@^-^-^-#(=%@@^--###-<-<##;#%:)%@@^-^-^-{|]|]{{$$###-<",
"1=)%@#@)%@@@@^-^-<#=%@@^-^<#()%@@=)%@#@)%@@@@^-^-<{]||]{$;;#()%@",
"}@@@-#^@@^-^--^-<#;%@@^-^-#()=%%%@@@-#^@@^-^--^-<#{$|||$;;#()=%%",
"1^-^--##^^^^^^-<#;;#--@^--#)%@@@@^-^--##^^^^^^-<###{$|]{{$#)%@@@",
"^^^-^--;;#----##)@#;##^--<;%@^@^^^^-^#;{;#----##)@#${{]]$;#%@^@^",
"^^---<<%=)#;;#=)@@^^#;;##;;;#---^^-#;{{]]$]$$#=)@@^^{${{{$###---",
"---<<%=)%%%;:))@^^^-<;#)=))%%###--#{$]]|]]$;:))@^^^-<##)=))%%###",
"<%%:=)%@@@@#)@@^^^-<##:%@@@@@^-<<%%#;$]]|]$;)@@^^^-<##:%@@@@@^-<",
"(:)%@@^@^^^-#^--<###;(%@@^^-^--#(:)%#;$]]]]##^--<###;(%@@^^-^--#",
":)%@@^^^^-^-<;###-)%#)@@^^-^--<;:)%@@#;$$$$#<;###-)%#)@@^^-^--<;",
";##---@^-^-<##-=)%@@^##^---<##;;;##--@@@@-#<##-=)%@@^##^---<##;;",
"<(:####---<;-:)%@@@@@^;#####-=)%<(:#####;#;;-:)%@@@@@^;#####-=)%",
"<:))%)^##;;-(%%@@@^^^^#;#-=)%@@@<:))%)^##;;-(%%@@@^^^^#;#-=)%@@@",
"[%^^@@^-^-;:)%@@@^^^---;-:%@@^-^#%^^@@^-^-;:)%@@@^^^---;-:%@@^-^",
"2%@^^^----#)%@@@^^^-^--#(%@@^-^-;%@^^^----#)%@@@^^^-^--#(%@@^-^-"};
