/* XPM */
static char * Brick32_xpm[] = {
"32 32 18 1",
" 	c #452226",
".	c #4D381C",
"+	c #4D401F",
"@	c #5E4522",
"#	c #ADB591",
"$	c #ABA589",
"%	c #85755C",
"&	c #664839",
"*	c #948465",
"=	c #ECD093",
"-	c #C7C5A7",
";	c #A1957A",
">	c #736244",
",	c #916A3B",
"'	c #3D2C11",
")	c #BA9961",
"!	c #433119",
"~	c #382F24",
" ..+@+...+@@@@@+...+@+...+@@@@@+",
"@##$$%&.*=-####$;##$$%&.*=-####$",
".$$;;;>+=-#######$$;;;>+=-######",
".%%,,,>@-$%%%%%%%%%,,,>+-$%%%%%%",
".%%%%,>@$%%%%%%%%%%%%,>@$%%%%%%%",
"'%%%%,>@;%%%%%%%%%%%%,>@;%%%%%%%",
"'%%%%,>@;%%%%%%%%%%%%,>@;%%%%%%%",
"'@@@@+...+@+...+@@@@@+...+@+...+",
"'####$;##$$%&.*=-####$;##$$%&.*=",
"'######$$;;;>+=-#######$$;;;>+=-",
"'%%%%%%%%,,,>@-$%%%%%%%%%,,,>+-$",
"'%%%%%%%%%%,>@$%%%%%%%%%%%%,>@$%",
"'%%%%%%%%%%,>@;%%%%%%%%%%%%,>@;%",
"'%%%%%%%%%%,>@;%%%%%%%%%%%%,>@;%",
"'..+@+...+@@@@@+...+@+...+@@@@@+",
"'##$$%&.*=-####$;##$$%&.*=-####$",
"'$$;;;>+=-#######$$;;;>+=-######",
"'%%,,,>@-$%%%%%%%%%,,,>+-$%%%%%%",
"'%%%%,>@$%%%%%%%%%%%%,>@$%%%%%%%",
"'%%%%,>@;%%%%%%%%%%%%,>@;%%%%%%%",
"'%%%%,>@;%%%%%%%%%%%%,>@;%%%%%%%",
"'@@@@+...+@+...+@@@@@+...+@+...+",
"'####$;##$$%&.*=-####$;##$$%&.*-",
"'######$$;;;>+=-#######$$;;;>+-)",
"@%%%%%%%%,,,>@-$%%%%%%%%%,,,>@$%",
".%%%%%%%%%%,>@$%%%%%%%%%%%%,>@$%",
"'%%%%%%%%%%,>@;%%%%%%%%%%%%,>@$%",
"'%%%%,%,%%%,>@;%%%%,%%%,%%%,>@$%",
"',%%,,,%,%,,>@;%%,,,%,%,%,%,>@$,",
"',,>,,,,,,,,@.@,,,,>,,,,,,,,@.@,",
"'@@@@+...+@+...+@@@@@+...+@+...+",
"'!!!~~~~~!!!~!!~~!!!!!~!!~~~~~~!"};
